<?xml version="1.0" standalone="no"?>
<!DOCTYPE svg PUBLIC "-//W3C//DTD SVG 20010904//EN"
 "http://www.w3.org/TR/2001/REC-SVG-20010904/DTD/svg10.dtd">
<svg version="1.0" xmlns="http://www.w3.org/2000/svg"
 width="5333.000000pt" height="3000.000000pt" viewBox="0 0 5333.000000 3000.000000"
 preserveAspectRatio="xMidYMid meet">

<g transform="translate(0.000000,3000.000000) scale(0.100000,-0.100000)"
fill="#000000" stroke="none">
<path d="M28783 16078 c3 -3998 4 -4373 20 -4483 77 -562 248 -939 564 -1246
136 -132 251 -213 431 -303 323 -162 707 -236 1161 -223 282 8 484 41 738 119
l104 32 -5 45 c-3 25 -20 213 -37 416 -17 204 -32 371 -33 373 -2 1 -32 -9
-68 -22 -175 -66 -364 -96 -608 -96 -414 0 -687 91 -901 300 -214 210 -324
497 -350 920 -5 81 -9 2003 -9 4338 l0 4192 -505 0 -505 0 3 -4362z"/>
<path d="M17560 14865 l0 -4975 2423 0 c2410 0 2617 3 2957 35 1304 126 2172
570 2628 1345 153 260 256 582 297 936 18 152 20 500 4 660 -61 617 -292 1103
-716 1505 -318 301 -750 520 -1263 640 l-55 13 40 15 c74 28 309 149 400 206
574 360 947 926 1049 1590 83 546 11 1104 -198 1530 -110 224 -236 398 -416
575 -445 438 -1088 724 -1890 839 -403 58 -247 55 -2857 58 l-2403 4 0 -4976z
m4720 4092 c509 -55 882 -161 1198 -341 561 -318 823 -779 823 -1446 0 -499
-140 -868 -446 -1175 -329 -328 -819 -525 -1490 -600 -258 -29 -601 -34 -2177
-35 l-1568 0 0 1811 0 1810 1753 -4 c1554 -3 1770 -5 1907 -20z m145 -4467
c506 -24 865 -84 1216 -206 787 -271 1189 -828 1189 -1648 0 -990 -525 -1565
-1627 -1785 -176 -35 -419 -66 -631 -81 -97 -6 -856 -10 -2053 -10 l-1899 0 0
1870 0 1870 1798 0 c1018 0 1888 -5 2007 -10z"/>
<path d="M9050 19470 c0 -28 -3 -30 -35 -30 l-35 0 0 -145 0 -145 -35 0 -35 0
0 -150 0 -150 -40 0 -40 0 0 -110 0 -110 -35 0 -35 0 0 -70 0 -70 -35 0 -35 0
0 -75 0 -75 -40 0 -40 0 0 -75 0 -75 -35 0 c-33 0 -35 -2 -35 -35 0 -34 -1
-35 -40 -35 l-40 0 0 -75 0 -75 -35 0 -35 0 0 -110 0 -110 35 0 c33 0 35 -2
35 -35 0 -34 1 -35 40 -35 39 0 40 1 40 35 0 33 2 35 35 35 34 0 35 1 35 40
l0 40 40 0 40 0 0 70 0 70 35 0 c34 0 35 1 35 40 0 39 1 40 35 40 l35 0 0 70
0 70 40 0 40 0 0 75 0 75 35 0 35 0 0 75 0 75 35 0 35 0 0 70 0 70 40 0 40 0
0 110 0 110 35 0 c33 0 35 -2 35 -35 0 -33 2 -35 35 -35 l35 0 0 -75 0 -75 40
0 40 0 0 -110 0 -110 35 0 35 0 0 -70 0 -70 35 0 35 0 0 -185 0 -185 -35 0
-35 0 0 -75 0 -75 -35 0 c-33 0 -35 -2 -35 -35 0 -34 -1 -35 -40 -35 l-40 0 0
-75 0 -75 -35 0 c-33 0 -35 -2 -35 -35 0 -33 -2 -35 -35 -35 -33 0 -35 -2 -35
-35 0 -34 -1 -35 -40 -35 l-40 0 0 -75 0 -75 -35 0 c-34 0 -35 -1 -35 -40 0
-39 -1 -40 -35 -40 -33 0 -35 -2 -35 -35 0 -34 -1 -35 -40 -35 -39 0 -40 -1
-40 -35 0 -33 -2 -35 -35 -35 -34 0 -35 -1 -35 -40 0 -39 -1 -40 -35 -40 -33
0 -35 -2 -35 -35 0 -34 -1 -35 -40 -35 -39 0 -40 -1 -40 -35 0 -33 -2 -35 -35
-35 -34 0 -35 -1 -35 -40 l0 -40 -75 0 -75 0 0 -35 c0 -33 -2 -35 -35 -35 -33
0 -35 -2 -35 -35 l0 -35 -75 0 -75 0 0 -40 c0 -39 -1 -40 -35 -40 -33 0 -35
-2 -35 -35 l0 -35 -75 0 -75 0 0 -35 0 -35 -75 0 -75 0 0 -40 c0 -39 -1 -40
-35 -40 -34 0 -35 1 -35 40 l0 40 -75 0 -75 0 0 35 0 35 -70 0 -70 0 0 35 0
35 -110 0 -110 0 0 40 0 40 -75 0 -75 0 0 35 c0 33 -2 35 -35 35 -33 0 -35 2
-35 35 l0 35 110 0 110 0 0 40 0 40 70 0 70 0 0 35 0 35 75 0 75 0 0 35 0 35
75 0 75 0 0 40 0 40 70 0 70 0 0 35 0 35 75 0 75 0 0 35 c0 33 2 35 35 35 34
0 35 1 35 40 l0 40 40 0 c39 0 40 1 40 35 0 33 2 35 35 35 l35 0 0 75 0 75
-35 0 c-33 0 -35 2 -35 35 l0 35 -75 0 -75 0 0 -35 c0 -33 -2 -35 -35 -35 -33
0 -35 -2 -35 -35 l0 -35 -75 0 -75 0 0 -40 c0 -39 -1 -40 -35 -40 -33 0 -35
-2 -35 -35 l0 -35 -75 0 -75 0 0 -40 0 -40 -75 0 -75 0 0 -35 0 -35 -70 0 -70
0 0 -35 0 -35 -110 0 -110 0 0 -40 0 -40 -110 0 -110 0 0 -35 0 -35 -185 0
-185 0 0 -35 c0 -34 -1 -35 -40 -35 l-40 0 0 -57 c0 -32 3 -82 6 -110 7 -52 7
-53 40 -53 33 0 34 -1 34 -40 0 -39 1 -40 35 -40 l35 0 0 -70 0 -70 40 0 40 0
0 -75 0 -75 35 0 35 0 0 -75 0 -75 35 0 35 0 0 -70 0 -70 40 0 40 0 0 -75 0
-75 35 0 35 0 0 -145 0 -145 35 0 35 0 0 -185 0 -185 40 0 40 0 0 -295 0 -295
-40 0 -40 0 0 -185 0 -185 -35 0 -35 0 0 -145 0 -145 -35 0 -35 0 0 -75 0 -75
-40 0 -40 0 0 -70 0 -70 -35 0 -35 0 0 -75 0 -75 -35 0 -35 0 0 -75 0 -75 -40
0 -40 0 0 -70 0 -70 -35 0 c-34 0 -35 -1 -35 -40 0 -39 -1 -40 -34 -40 -33 0
-33 -1 -40 -52 -3 -29 -6 -79 -6 -110 l0 -58 40 0 c39 0 40 -1 40 -35 l0 -35
185 0 185 0 0 -35 0 -35 110 0 110 0 0 -40 0 -40 110 0 110 0 0 -35 0 -35 70
0 70 0 0 -35 0 -35 75 0 75 0 0 -40 0 -40 75 0 75 0 0 -35 c0 -33 2 -35 35
-35 34 0 35 -1 35 -40 l0 -40 75 0 75 0 0 -35 c0 -33 2 -35 35 -35 33 0 35 -2
35 -35 0 -33 2 -35 35 -35 34 0 35 -1 35 -40 l0 -40 40 0 c39 0 40 -1 40 -35
0 -33 2 -35 35 -35 33 0 35 -2 35 -35 0 -33 2 -35 35 -35 34 0 35 -1 35 -40
l0 -40 40 0 c39 0 40 -1 40 -35 0 -33 2 -35 35 -35 33 0 35 -2 35 -35 0 -33 2
-35 35 -35 l35 0 0 -75 0 -75 40 0 c39 0 40 -1 40 -35 0 -33 2 -35 35 -35 l35
0 0 -75 0 -75 40 0 40 0 0 -75 0 -75 35 0 35 0 0 -70 0 -70 35 0 35 0 0 -110
0 -110 40 0 40 0 0 -150 0 -150 35 0 35 0 0 -145 0 -145 35 0 c34 0 35 -1 35
-40 l0 -40 58 0 c31 0 81 3 110 6 51 7 52 7 52 40 0 33 1 34 40 34 39 0 40 1
40 35 l0 35 70 0 70 0 0 40 0 40 75 0 75 0 0 35 0 35 75 0 75 0 0 35 0 35 70
0 70 0 0 40 0 40 75 0 75 0 0 35 0 35 145 0 145 0 0 35 0 35 185 0 185 0 0 40
0 40 295 0 295 0 0 -40 0 -40 185 0 185 0 0 -35 0 -35 145 0 145 0 0 -35 0
-35 75 0 75 0 0 -40 0 -40 70 0 70 0 0 -35 0 -35 75 0 75 0 0 -35 0 -35 75 0
75 0 0 -40 0 -40 70 0 70 0 0 -35 c0 -34 1 -35 40 -35 39 0 40 -1 40 -34 0
-33 1 -33 53 -40 28 -3 78 -6 110 -6 l57 0 0 40 c0 39 1 40 35 40 l35 0 0 185
0 185 35 0 35 0 0 110 0 110 40 0 40 0 0 110 0 110 35 0 35 0 0 70 0 70 35 0
35 0 0 75 0 75 40 0 40 0 0 75 0 75 35 0 c33 0 35 2 35 35 0 34 1 35 40 35
l40 0 0 75 0 75 35 0 c33 0 35 2 35 35 0 33 2 35 35 35 33 0 35 2 35 35 0 34
1 35 40 35 l40 0 0 40 c0 39 1 40 35 40 33 0 35 2 35 35 0 33 2 35 35 35 33 0
35 2 35 35 0 34 1 35 40 35 l40 0 0 40 c0 39 1 40 35 40 33 0 35 2 35 35 0 33
2 35 35 35 33 0 35 2 35 35 l0 35 75 0 75 0 0 40 c0 39 1 40 35 40 33 0 35 2
35 35 l0 35 75 0 75 0 0 40 0 40 75 0 75 0 0 35 0 35 70 0 70 0 0 35 0 35 110
0 110 0 0 40 0 40 110 0 110 0 0 35 0 35 185 0 185 0 0 35 c0 32 2 35 30 35
l30 0 0 110 0 110 -30 0 c-28 0 -30 2 -30 40 0 39 -1 40 -35 40 l-35 0 0 70 0
70 -40 0 -40 0 0 75 0 75 -35 0 -35 0 0 75 0 75 -35 0 -35 0 0 70 0 70 -40 0
-40 0 0 75 0 75 -35 0 -35 0 0 145 0 145 -35 0 -35 0 0 185 0 185 -40 0 -40 0
0 295 0 295 40 0 40 0 0 185 0 185 35 0 35 0 0 145 0 145 35 0 35 0 0 75 0 75
40 0 40 0 0 70 0 70 35 0 35 0 0 75 0 75 35 0 35 0 0 75 0 75 40 0 40 0 0 70
0 70 35 0 c34 0 35 1 35 40 0 38 2 40 30 40 l30 0 0 110 0 110 -30 0 c-28 0
-30 3 -30 35 l0 35 -185 0 -185 0 0 35 0 35 -110 0 -110 0 0 40 0 40 -110 0
-110 0 0 35 0 35 -70 0 -70 0 0 35 0 35 -75 0 -75 0 0 40 0 40 -75 0 -75 0 0
35 c0 33 -2 35 -35 35 -34 0 -35 1 -35 40 l0 40 -75 0 -75 0 0 35 c0 33 -2 35
-35 35 -33 0 -35 2 -35 35 0 33 -2 35 -35 35 -34 0 -35 1 -35 40 l0 40 -40 0
c-39 0 -40 1 -40 35 0 33 -2 35 -35 35 -33 0 -35 2 -35 35 0 33 -2 35 -35 35
-34 0 -35 1 -35 40 l0 40 -40 0 c-39 0 -40 1 -40 35 0 33 -2 35 -35 35 -33 0
-35 2 -35 35 0 33 -2 35 -35 35 l-35 0 0 75 0 75 -40 0 c-39 0 -40 1 -40 35 0
33 -2 35 -35 35 l-35 0 0 75 0 75 -40 0 -40 0 0 75 0 75 -35 0 -35 0 0 70 0
70 -35 0 -35 0 0 110 0 110 -40 0 -40 0 0 110 0 110 -35 0 -35 0 0 185 0 185
-35 0 c-32 0 -35 2 -35 30 l0 30 -110 0 -110 0 0 -30 c0 -28 -2 -30 -40 -30
-39 0 -40 -1 -40 -35 l0 -35 -70 0 -70 0 0 -40 0 -40 -75 0 -75 0 0 -35 0 -35
-75 0 -75 0 0 -35 0 -35 -70 0 -70 0 0 -40 0 -40 -75 0 -75 0 0 -35 0 -35
-145 0 -145 0 0 -35 0 -35 -185 0 -185 0 0 -40 0 -40 -295 0 -295 0 0 40 0 40
-185 0 -185 0 0 35 0 35 -145 0 -145 0 0 35 0 35 -75 0 -75 0 0 40 0 40 -70 0
-70 0 0 35 0 35 -75 0 -75 0 0 35 0 35 -75 0 -75 0 0 40 0 40 -70 0 -70 0 0
35 c0 34 -1 35 -40 35 -38 0 -40 2 -40 30 l0 30 -110 0 -110 0 0 -30z m520
-505 l0 -35 70 0 70 0 0 -40 0 -40 110 0 110 0 0 -35 0 -35 75 0 75 0 0 -35 0
-35 145 0 145 0 0 -40 0 -40 665 0 665 0 0 40 0 40 110 0 110 0 0 35 0 35 110
0 110 0 0 35 0 35 110 0 110 0 0 40 0 40 70 0 70 0 0 35 c0 34 1 35 40 35 l40
0 0 -110 0 -110 -40 0 -40 0 0 -75 0 -75 -35 0 -35 0 0 -70 0 -70 -35 0 -35 0
0 -110 0 -110 -40 0 -40 0 0 -40 c0 -39 -1 -40 -35 -40 -33 0 -35 -2 -35 -35
l0 -35 -110 0 -110 0 0 -35 0 -35 -185 0 -185 0 0 -40 0 -40 -585 0 -585 0 0
40 0 40 -185 0 -185 0 0 35 0 35 -110 0 -110 0 0 35 c0 33 -2 35 -35 35 -34 0
-35 1 -35 40 l0 40 -40 0 -40 0 0 110 0 110 -35 0 -35 0 0 70 0 70 -35 0 -35
0 0 75 0 75 -40 0 -40 0 0 110 0 110 40 0 c39 0 40 -1 40 -35z m3370 -225 l0
-110 40 0 40 0 0 -70 0 -70 35 0 35 0 0 -75 0 -75 35 0 35 0 0 -75 0 -75 40 0
40 0 0 -70 0 -70 35 0 35 0 0 -75 0 -75 35 0 c33 0 35 -2 35 -35 0 -34 1 -35
40 -35 l40 0 0 -40 c0 -39 1 -40 35 -40 33 0 35 -2 35 -35 0 -34 1 -35 40 -35
l40 0 0 -75 0 -75 35 0 c33 0 35 -2 35 -35 0 -33 2 -35 35 -35 33 0 35 -2 35
-35 0 -34 1 -35 40 -35 l40 0 0 -40 0 -40 70 0 70 0 0 -35 c0 -34 1 -35 40
-35 l40 0 0 -40 c0 -39 1 -40 35 -40 33 0 35 -2 35 -35 l0 -35 75 0 75 0 0
-35 0 -35 70 0 70 0 0 -40 0 -40 75 0 75 0 0 -35 0 -35 75 0 75 0 0 -35 0 -35
70 0 70 0 0 -40 0 -40 110 0 110 0 0 -35 c0 -33 -2 -35 -35 -35 -33 0 -35 -2
-35 -35 l0 -35 -75 0 -75 0 0 -40 0 -40 -110 0 -110 0 0 -35 0 -35 -70 0 -70
0 0 -35 0 -35 -75 0 -75 0 0 -40 c0 -39 -1 -40 -35 -40 -34 0 -35 1 -35 40 l0
40 -75 0 -75 0 0 35 0 35 -75 0 -75 0 0 35 c0 33 -2 35 -35 35 -34 0 -35 1
-35 40 l0 40 -75 0 -75 0 0 35 c0 33 -2 35 -35 35 -33 0 -35 2 -35 35 l0 35
-75 0 -75 0 0 40 c0 39 -1 40 -35 40 -33 0 -35 2 -35 35 0 34 -1 35 -40 35
-39 0 -40 1 -40 35 0 33 -2 35 -35 35 -34 0 -35 1 -35 40 0 39 -1 40 -35 40
-33 0 -35 2 -35 35 0 34 -1 35 -40 35 -39 0 -40 1 -40 35 0 33 -2 35 -35 35
-34 0 -35 1 -35 40 0 39 -1 40 -35 40 -33 0 -35 2 -35 35 0 34 -1 35 -40 35
l-40 0 0 75 0 75 -35 0 c-33 0 -35 2 -35 35 0 33 -2 35 -35 35 l-35 0 0 75 0
75 -40 0 c-39 0 -40 1 -40 35 0 33 -2 35 -35 35 l-35 0 0 75 0 75 -35 0 -35 0
0 185 0 185 35 0 35 0 0 70 0 70 35 0 35 0 0 110 0 110 40 0 40 0 0 75 0 75
35 0 c33 0 35 2 35 35 0 33 2 35 35 35 l35 0 0 -110z m-2790 -950 l0 -40 185
0 185 0 0 -35 0 -35 515 0 515 0 0 35 0 35 185 0 185 0 0 40 0 40 110 0 110 0
0 -40 0 -40 -40 0 -40 0 0 -70 0 -70 -35 0 -35 0 0 -110 0 -110 -35 0 -35 0 0
-75 0 -75 -40 0 -40 0 0 -75 0 -75 -220 0 -220 0 0 -35 0 -35 -365 0 -365 0 0
35 0 35 -220 0 -220 0 0 75 0 75 -40 0 -40 0 0 75 0 75 -35 0 -35 0 0 110 0
110 -35 0 -35 0 0 70 0 70 -40 0 -40 0 0 40 0 40 110 0 110 0 0 -40z m-440
-185 l0 -75 40 0 40 0 0 -70 0 -70 35 0 35 0 0 -75 0 -75 35 0 35 0 0 -185 0
-185 -35 0 c-33 0 -35 -2 -35 -35 0 -33 -2 -35 -35 -35 -34 0 -35 -1 -35 -40
l0 -40 -40 0 c-39 0 -40 -1 -40 -35 0 -33 -2 -35 -35 -35 l-35 0 0 -75 0 -75
-35 0 c-33 0 -35 -2 -35 -35 0 -34 -1 -35 -40 -35 -39 0 -40 -1 -40 -35 0 -33
-2 -35 -35 -35 -34 0 -35 -1 -35 -40 0 -39 -1 -40 -35 -40 -33 0 -35 -2 -35
-35 l0 -35 -75 0 -75 0 0 -35 c0 -33 -2 -35 -35 -35 -34 0 -35 -1 -35 -40 l0
-40 -40 0 c-39 0 -40 -1 -40 -35 0 -33 -2 -35 -35 -35 -33 0 -35 -2 -35 -35
l0 -35 -185 0 -185 0 0 35 0 35 -75 0 -75 0 0 35 0 35 -70 0 -70 0 0 40 0 40
-75 0 -75 0 0 35 c0 33 2 35 35 35 33 0 35 2 35 35 l0 35 75 0 75 0 0 40 c0
39 1 40 35 40 33 0 35 2 35 35 l0 35 75 0 75 0 0 35 c0 34 1 35 40 35 l40 0 0
40 c0 39 1 40 35 40 33 0 35 2 35 35 0 33 2 35 35 35 33 0 35 2 35 35 0 34 1
35 40 35 l40 0 0 40 c0 39 1 40 35 40 33 0 35 2 35 35 0 33 2 35 35 35 33 0
35 2 35 35 0 34 1 35 40 35 l40 0 0 40 c0 39 1 40 35 40 33 0 35 2 35 35 0 33
2 35 35 35 33 0 35 2 35 35 0 34 1 35 40 35 l40 0 0 75 0 75 35 0 c34 0 35 1
35 40 0 39 1 40 35 40 33 0 35 2 35 35 0 34 1 35 40 35 l40 0 0 75 0 75 35 0
c33 0 35 2 35 35 0 33 2 35 35 35 l35 0 0 -75z m2720 40 c0 -33 2 -35 35 -35
l35 0 0 -75 0 -75 40 0 c39 0 40 -1 40 -35 0 -33 2 -35 35 -35 l35 0 0 -75 0
-75 35 0 c34 0 35 -1 35 -40 l0 -40 40 0 c39 0 40 -1 40 -35 0 -33 2 -35 35
-35 33 0 35 -2 35 -35 0 -33 2 -35 35 -35 34 0 35 -1 35 -40 l0 -40 40 0 c39
0 40 -1 40 -35 0 -33 2 -35 35 -35 33 0 35 -2 35 -35 0 -33 2 -35 35 -35 34 0
35 -1 35 -40 l0 -40 40 0 c39 0 40 -1 40 -35 0 -33 2 -35 35 -35 33 0 35 -2
35 -35 0 -33 2 -35 35 -35 34 0 35 -1 35 -40 l0 -40 40 0 c39 0 40 -1 40 -35
l0 -35 75 0 75 0 0 -35 c0 -33 2 -35 35 -35 34 0 35 -1 35 -40 l0 -40 75 0 75
0 0 -35 c0 -33 2 -35 35 -35 33 0 35 -2 35 -35 l0 -35 -75 0 -75 0 0 -40 0
-40 -70 0 -70 0 0 -35 0 -35 -75 0 -75 0 0 -35 0 -35 -185 0 -185 0 0 35 c0
33 -2 35 -35 35 -33 0 -35 2 -35 35 0 34 -1 35 -40 35 l-40 0 0 40 0 40 -70 0
-70 0 0 35 0 35 -75 0 -75 0 0 -145 0 -145 35 0 c34 0 35 -1 35 -40 l0 -40 75
0 75 0 0 -70 0 -70 -75 0 -75 0 0 -40 0 -40 -110 0 -110 0 0 -35 0 -35 -70 0
-70 0 0 -35 0 -35 -75 0 -75 0 0 35 c0 33 -2 35 -35 35 -33 0 -35 2 -35 35 0
34 -1 35 -40 35 l-40 0 0 40 c0 39 -1 40 -35 40 -33 0 -35 2 -35 35 0 33 -2
35 -35 35 -33 0 -35 2 -35 35 0 34 -1 35 -40 35 l-40 0 0 40 c0 39 -1 40 -35
40 -33 0 -35 2 -35 35 0 33 -2 35 -35 35 l-35 0 0 75 0 75 35 0 35 0 0 70 0
70 35 0 35 0 0 110 0 110 40 0 40 0 0 75 0 75 70 0 70 0 0 -75 0 -75 40 0 c39
0 40 -1 40 -35 0 -33 2 -35 35 -35 33 0 35 -2 35 -35 l0 -35 75 0 75 0 0 35
c0 33 2 35 35 35 l35 0 0 75 0 75 -35 0 -35 0 0 70 0 70 -40 0 -40 0 0 40 c0
39 -1 40 -35 40 -33 0 -35 2 -35 35 0 33 -2 35 -35 35 l-35 0 0 185 0 185 35
0 35 0 0 75 0 75 35 0 35 0 0 70 0 70 40 0 40 0 0 75 0 75 35 0 c33 0 35 -2
35 -35z m-730 -920 l0 -75 -40 0 -40 0 0 -75 0 -75 -35 0 -35 0 0 -70 0 -70
-35 0 -35 0 0 -110 0 -110 -445 0 -445 0 0 110 0 110 -35 0 -35 0 0 70 0 70
-35 0 -35 0 0 75 0 75 -40 0 -40 0 0 75 0 75 665 0 665 0 0 -75z m-1550 -150
l0 -75 40 0 40 0 0 -110 0 -110 35 0 35 0 0 -70 0 -70 35 0 35 0 0 -75 0 -75
-35 0 c-33 0 -35 -2 -35 -35 0 -33 -2 -35 -35 -35 -34 0 -35 -1 -35 -40 l0
-40 -40 0 c-39 0 -40 -1 -40 -35 0 -33 -2 -35 -35 -35 -33 0 -35 -2 -35 -35 0
-33 -2 -35 -35 -35 -34 0 -35 -1 -35 -40 l0 -40 -40 0 c-39 0 -40 -1 -40 -35
0 -33 -2 -35 -35 -35 -33 0 -35 -2 -35 -35 l0 -35 -75 0 -75 0 0 35 0 35 -70
0 -70 0 0 35 0 35 -110 0 -110 0 0 40 0 40 -75 0 -75 0 0 70 0 70 75 0 75 0 0
40 c0 39 1 40 35 40 33 0 35 2 35 35 0 33 2 35 35 35 33 0 35 2 35 35 0 34 1
35 40 35 l40 0 0 40 c0 39 1 40 35 40 33 0 35 2 35 35 0 33 2 35 35 35 33 0
35 2 35 35 0 34 1 35 40 35 l40 0 0 40 c0 39 1 40 35 40 33 0 35 2 35 35 0 33
2 35 35 35 33 0 35 2 35 35 0 34 1 35 40 35 l40 0 0 75 0 75 70 0 70 0 0 -75z
m-3080 -255 l0 -40 75 0 75 0 0 -35 0 -35 70 0 70 0 0 -35 0 -35 110 0 110 0
0 -40 0 -40 40 0 c39 0 40 -1 40 -35 0 -33 2 -35 35 -35 l35 0 0 -110 0 -110
35 0 35 0 0 -145 0 -145 40 0 40 0 0 -665 0 -665 -40 0 -40 0 0 -145 0 -145
-35 0 -35 0 0 -110 0 -110 -35 0 c-33 0 -35 -2 -35 -35 0 -34 -1 -35 -40 -35
l-40 0 0 -40 0 -40 -110 0 -110 0 0 -35 0 -35 -70 0 -70 0 0 -35 0 -35 -75 0
-75 0 0 -40 0 -40 -110 0 -110 0 0 40 c0 39 1 40 35 40 l35 0 0 70 0 70 40 0
40 0 0 110 0 110 35 0 35 0 0 110 0 110 35 0 35 0 0 110 0 110 40 0 40 0 0
665 0 665 -40 0 -40 0 0 110 0 110 -35 0 -35 0 0 110 0 110 -35 0 -35 0 0 110
0 110 -40 0 -40 0 0 70 0 70 -35 0 c-34 0 -35 1 -35 40 l0 40 110 0 110 0 0
-40z m8150 0 c0 -39 -1 -40 -35 -40 l-35 0 0 -70 0 -70 -40 0 -40 0 0 -110 0
-110 -35 0 -35 0 0 -75 0 -75 -35 0 -35 0 0 -145 0 -145 -40 0 -40 0 0 -665 0
-665 40 0 40 0 0 -145 0 -145 35 0 35 0 0 -75 0 -75 35 0 35 0 0 -110 0 -110
40 0 40 0 0 -70 0 -70 35 0 c34 0 35 -1 35 -40 l0 -40 -110 0 -110 0 0 40 0
40 -75 0 -75 0 0 35 0 35 -70 0 -70 0 0 35 0 35 -110 0 -110 0 0 40 0 40 -40
0 c-39 0 -40 1 -40 35 0 33 -2 35 -35 35 l-35 0 0 110 0 110 -35 0 -35 0 0
145 0 145 -40 0 -40 0 0 665 0 665 40 0 40 0 0 145 0 145 35 0 35 0 0 110 0
110 35 0 c33 0 35 2 35 35 0 34 1 35 40 35 l40 0 0 40 0 40 110 0 110 0 0 35
0 35 70 0 70 0 0 35 0 35 75 0 75 0 0 40 0 40 110 0 110 0 0 -40z m-7120 -440
l0 -40 110 0 110 0 0 -35 0 -35 70 0 70 0 0 -35 0 -35 75 0 75 0 0 -40 0 -40
75 0 75 0 0 -180 0 -180 35 0 35 0 0 -445 0 -445 -35 0 -35 0 0 -180 0 -180
-75 0 -75 0 0 -40 0 -40 -75 0 -75 0 0 -35 0 -35 -70 0 -70 0 0 -35 0 -35
-110 0 -110 0 0 -40 0 -40 -40 0 -40 0 0 110 0 110 40 0 40 0 0 185 0 185 35
0 35 0 0 515 0 515 -35 0 -35 0 0 185 0 185 -40 0 -40 0 0 110 0 110 40 0 40
0 0 -40z m5950 -70 l0 -110 -40 0 -40 0 0 -185 0 -185 -35 0 -35 0 0 -515 0
-515 35 0 35 0 0 -185 0 -185 40 0 40 0 0 -110 0 -110 -40 0 -40 0 0 40 0 40
-110 0 -110 0 0 35 0 35 -70 0 -70 0 0 35 0 35 -75 0 -75 0 0 40 0 40 -75 0
-75 0 0 180 0 180 -35 0 -35 0 0 445 0 445 35 0 35 0 0 180 0 180 75 0 75 0 0
40 0 40 75 0 75 0 0 35 0 35 70 0 70 0 0 35 0 35 110 0 110 0 0 40 0 40 40 0
40 0 0 -110z m-2720 -5 c0 -33 -2 -35 -35 -35 l-35 0 0 -75 0 -75 -40 0 -40 0
0 -70 0 -70 -35 0 -35 0 0 -110 0 -110 -75 0 -75 0 0 110 0 110 -35 0 -35 0 0
70 0 70 -40 0 -40 0 0 75 0 75 -35 0 c-33 0 -35 2 -35 35 l0 35 295 0 295 0 0
-35z m-810 -145 c0 -39 1 -40 35 -40 l35 0 0 -110 0 -110 40 0 40 0 0 -70 0
-70 35 0 35 0 0 -75 0 -75 -75 0 -75 0 0 35 0 35 -70 0 -70 0 0 40 0 40 -110
0 -110 0 0 35 c0 34 -1 35 -40 35 -39 0 -40 1 -40 35 0 34 1 35 40 35 l40 0 0
40 c0 39 1 40 35 40 33 0 35 2 35 35 0 33 2 35 35 35 33 0 35 2 35 35 0 34 1
35 40 35 l40 0 0 40 c0 39 1 40 35 40 34 0 35 -1 35 -40z m1100 0 l0 -40 40 0
c39 0 40 -1 40 -35 0 -33 2 -35 35 -35 33 0 35 -2 35 -35 0 -33 2 -35 35 -35
34 0 35 -1 35 -40 l0 -40 40 0 c39 0 40 -1 40 -35 0 -34 -1 -35 -40 -35 -39 0
-40 -1 -40 -35 l0 -35 -110 0 -110 0 0 -40 0 -40 -70 0 -70 0 0 -35 0 -35 -75
0 -75 0 0 75 0 75 35 0 35 0 0 70 0 70 40 0 40 0 0 110 0 110 35 0 c34 0 35 1
35 40 0 39 1 40 35 40 34 0 35 -1 35 -40z m-2420 -220 l0 -40 75 0 75 0 0 -35
0 -35 70 0 70 0 0 -35 0 -35 110 0 110 0 0 -445 0 -445 -110 0 -110 0 0 -35 0
-35 -70 0 -70 0 0 -35 0 -35 -75 0 -75 0 0 -40 0 -40 -75 0 -75 0 0 295 0 295
40 0 40 0 0 75 0 75 -40 0 -40 0 0 295 0 295 75 0 75 0 0 -40z m3820 -625 l0
-665 -75 0 -75 0 0 40 0 40 -75 0 -75 0 0 35 0 35 -70 0 -70 0 0 35 0 35 -110
0 -110 0 0 445 0 445 110 0 110 0 0 35 0 35 70 0 70 0 0 35 0 35 75 0 75 0 0
40 0 40 75 0 75 0 0 -665z m-2940 260 l0 -35 75 0 75 0 0 -40 0 -40 110 0 110
0 0 -35 0 -35 70 0 70 0 0 -75 0 -75 -70 0 -70 0 0 -35 0 -35 -110 0 -110 0 0
-40 0 -40 -75 0 -75 0 0 -35 c0 -33 -2 -35 -35 -35 l-35 0 0 295 0 295 35 0
c33 0 35 -2 35 -35z m1980 -260 l0 -295 -35 0 c-33 0 -35 2 -35 35 l0 35 -75
0 -75 0 0 40 0 40 -70 0 -70 0 0 35 0 35 -110 0 -110 0 0 75 0 75 110 0 110 0
0 35 0 35 70 0 70 0 0 40 0 40 75 0 75 0 0 35 c0 33 2 35 35 35 l35 0 0 -295z
m-1320 -370 l0 -75 -35 0 -35 0 0 -70 0 -70 -40 0 -40 0 0 -110 0 -110 -35 0
c-34 0 -35 -1 -35 -40 0 -39 -1 -40 -35 -40 -34 0 -35 1 -35 40 l0 40 -40 0
c-39 0 -40 1 -40 35 0 33 -2 35 -35 35 -33 0 -35 2 -35 35 0 33 -2 35 -35 35
-34 0 -35 1 -35 40 l0 40 -40 0 c-39 0 -40 1 -40 35 0 34 1 35 40 35 39 0 40
1 40 35 l0 35 110 0 110 0 0 40 0 40 70 0 70 0 0 35 0 35 75 0 75 0 0 -75z
m740 40 l0 -35 70 0 70 0 0 -40 0 -40 110 0 110 0 0 -35 c0 -34 1 -35 40 -35
39 0 40 -1 40 -35 0 -34 -1 -35 -40 -35 l-40 0 0 -40 c0 -39 -1 -40 -35 -40
-33 0 -35 -2 -35 -35 0 -33 -2 -35 -35 -35 -33 0 -35 -2 -35 -35 0 -34 -1 -35
-40 -35 l-40 0 0 -40 c0 -39 -1 -40 -35 -40 -34 0 -35 1 -35 40 0 39 -1 40
-35 40 l-35 0 0 110 0 110 -40 0 -40 0 0 70 0 70 -35 0 -35 0 0 75 0 75 75 0
75 0 0 -35z m-370 -225 l0 -110 35 0 35 0 0 -70 0 -70 40 0 40 0 0 -75 0 -75
35 0 c33 0 35 -2 35 -35 l0 -35 -295 0 -295 0 0 35 c0 33 2 35 35 35 l35 0 0
75 0 75 40 0 40 0 0 70 0 70 35 0 35 0 0 110 0 110 75 0 75 0 0 -110z m-1250
-145 c0 -33 2 -35 35 -35 33 0 35 -2 35 -35 0 -34 1 -35 40 -35 l40 0 0 -40
c0 -39 1 -40 35 -40 33 0 35 -2 35 -35 0 -33 2 -35 35 -35 33 0 35 -2 35 -35
0 -34 1 -35 40 -35 l40 0 0 -40 c0 -39 1 -40 35 -40 33 0 35 -2 35 -35 0 -33
2 -35 35 -35 l35 0 0 -75 0 -75 -35 0 -35 0 0 -70 0 -70 -35 0 -35 0 0 -110 0
-110 -40 0 -40 0 0 -75 0 -75 -70 0 -70 0 0 75 0 75 -40 0 c-39 0 -40 1 -40
35 0 33 -2 35 -35 35 -33 0 -35 2 -35 35 0 33 -2 35 -35 35 -34 0 -35 1 -35
40 l0 40 -40 0 c-39 0 -40 1 -40 35 0 33 -2 35 -35 35 -33 0 -35 2 -35 35 0
33 -2 35 -35 35 -34 0 -35 1 -35 40 l0 40 -40 0 c-39 0 -40 1 -40 35 0 33 -2
35 -35 35 -33 0 -35 2 -35 35 0 33 -2 35 -35 35 -34 0 -35 1 -35 40 l0 40 -75
0 -75 0 0 70 0 70 75 0 75 0 0 40 0 40 110 0 110 0 0 35 0 35 70 0 70 0 0 35
0 35 75 0 75 0 0 -35z m2500 0 l0 -35 70 0 70 0 0 -35 0 -35 110 0 110 0 0
-40 0 -40 75 0 75 0 0 -70 0 -70 -75 0 -75 0 0 -40 c0 -39 -1 -40 -35 -40 -33
0 -35 -2 -35 -35 0 -33 -2 -35 -35 -35 -33 0 -35 -2 -35 -35 0 -34 -1 -35 -40
-35 l-40 0 0 -40 c0 -39 -1 -40 -35 -40 -33 0 -35 -2 -35 -35 0 -33 -2 -35
-35 -35 -33 0 -35 -2 -35 -35 0 -34 -1 -35 -40 -35 l-40 0 0 -40 c0 -39 -1
-40 -35 -40 -33 0 -35 -2 -35 -35 0 -33 -2 -35 -35 -35 -33 0 -35 -2 -35 -35
0 -34 -1 -35 -40 -35 l-40 0 0 -75 0 -75 -70 0 -70 0 0 75 0 75 -40 0 -40 0 0
110 0 110 -35 0 -35 0 0 70 0 70 -35 0 -35 0 0 75 0 75 35 0 c33 0 35 2 35 35
0 33 2 35 35 35 34 0 35 1 35 40 l0 40 40 0 c39 0 40 1 40 35 0 33 2 35 35 35
33 0 35 2 35 35 0 33 2 35 35 35 34 0 35 1 35 40 l0 40 40 0 c39 0 40 1 40 35
0 33 2 35 35 35 33 0 35 2 35 35 l0 35 75 0 75 0 0 -35z m-3380 -440 c0 -33 2
-35 35 -35 33 0 35 -2 35 -35 0 -34 1 -35 40 -35 l40 0 0 -40 c0 -39 1 -40 35
-40 33 0 35 -2 35 -35 l0 -35 75 0 75 0 0 -35 c0 -33 2 -35 35 -35 34 0 35 -1
35 -40 0 -39 1 -40 35 -40 33 0 35 -2 35 -35 0 -34 1 -35 40 -35 39 0 40 -1
40 -35 0 -33 2 -35 35 -35 l35 0 0 -75 0 -75 35 0 c33 0 35 -2 35 -35 0 -34 1
-35 40 -35 l40 0 0 -40 c0 -39 1 -40 35 -40 33 0 35 -2 35 -35 0 -33 2 -35 35
-35 l35 0 0 -185 0 -185 -35 0 -35 0 0 -75 0 -75 -35 0 -35 0 0 -70 0 -70 -40
0 -40 0 0 -75 0 -75 -35 0 c-33 0 -35 2 -35 35 0 33 -2 35 -35 35 -34 0 -35 1
-35 40 l0 40 -40 0 -40 0 0 70 0 70 -35 0 c-34 0 -35 1 -35 40 0 39 -1 40 -35
40 l-35 0 0 75 0 75 -40 0 c-39 0 -40 1 -40 35 0 33 -2 35 -35 35 -33 0 -35 2
-35 35 l0 35 -75 0 -75 0 0 -35 c0 -33 -2 -35 -35 -35 l-35 0 0 -75 0 -75 35
0 c33 0 35 -2 35 -35 0 -34 1 -35 40 -35 l40 0 0 -75 0 -75 35 0 c33 0 35 -2
35 -35 0 -33 2 -35 35 -35 l35 0 0 -75 0 -75 40 0 c39 0 40 -1 40 -35 0 -33 2
-35 35 -35 l35 0 0 -75 0 -75 35 0 35 0 0 -185 0 -185 -35 0 -35 0 0 -70 0
-70 -35 0 -35 0 0 -110 0 -110 -40 0 -40 0 0 -75 0 -75 -35 0 c-33 0 -35 -2
-35 -35 0 -33 -2 -35 -35 -35 l-35 0 0 110 0 110 -40 0 -40 0 0 70 0 70 -35 0
-35 0 0 75 0 75 -35 0 -35 0 0 75 0 75 -40 0 -40 0 0 70 0 70 -35 0 -35 0 0
75 0 75 -35 0 c-33 0 -35 2 -35 35 0 34 -1 35 -40 35 l-40 0 0 40 c0 39 -1 40
-35 40 -33 0 -35 2 -35 35 0 34 -1 35 -40 35 l-40 0 0 75 0 75 -35 0 c-33 0
-35 2 -35 35 0 33 -2 35 -35 35 -33 0 -35 2 -35 35 0 34 -1 35 -40 35 l-40 0
0 40 0 40 -70 0 -70 0 0 35 c0 34 -1 35 -40 35 l-40 0 0 40 c0 39 -1 40 -35
40 -33 0 -35 2 -35 35 l0 35 -75 0 -75 0 0 35 0 35 -70 0 -70 0 0 40 0 40 -75
0 -75 0 0 35 0 35 -75 0 -75 0 0 35 0 35 -70 0 -70 0 0 40 0 40 -110 0 -110 0
0 35 c0 33 2 35 35 35 33 0 35 2 35 35 l0 35 75 0 75 0 0 40 0 40 110 0 110 0
0 35 0 35 70 0 70 0 0 35 0 35 75 0 75 0 0 40 c0 39 1 40 35 40 34 0 35 -1 35
-40 l0 -40 75 0 75 0 0 -35 0 -35 75 0 75 0 0 -35 c0 -33 2 -35 35 -35 34 0
35 -1 35 -40 l0 -40 75 0 75 0 0 -35 c0 -33 2 -35 35 -35 33 0 35 -2 35 -35
l0 -35 75 0 75 0 0 -40 0 -40 110 0 110 0 0 110 0 110 -35 0 c-34 0 -35 1 -35
40 l0 40 -75 0 -75 0 0 35 c0 34 -1 35 -40 35 -39 0 -40 1 -40 35 0 33 -2 35
-35 35 -34 0 -35 1 -35 40 l0 40 -75 0 -75 0 0 35 c0 33 -2 35 -35 35 -33 0
-35 2 -35 35 l0 35 75 0 75 0 0 40 0 40 70 0 70 0 0 35 0 35 75 0 75 0 0 35 0
35 185 0 185 0 0 -35z m4480 0 l0 -35 75 0 75 0 0 -35 0 -35 70 0 70 0 0 -40
0 -40 75 0 75 0 0 -35 c0 -33 -2 -35 -35 -35 -33 0 -35 -2 -35 -35 l0 -35 -75
0 -75 0 0 -40 c0 -39 -1 -40 -35 -40 -33 0 -35 -2 -35 -35 l0 -35 -75 0 -75 0
0 -35 c0 -34 -1 -35 -40 -35 l-40 0 0 -40 c0 -39 -1 -40 -35 -40 -33 0 -35 -2
-35 -35 0 -33 -2 -35 -35 -35 -33 0 -35 -2 -35 -35 0 -34 -1 -35 -40 -35 l-40
0 0 -40 c0 -39 -1 -40 -35 -40 -33 0 -35 -2 -35 -35 0 -33 -2 -35 -35 -35 -33
0 -35 -2 -35 -35 0 -34 -1 -35 -40 -35 l-40 0 0 -40 c0 -39 -1 -40 -35 -40
-33 0 -35 -2 -35 -35 0 -33 -2 -35 -35 -35 -33 0 -35 -2 -35 -35 0 -34 -1 -35
-40 -35 l-40 0 0 -40 c0 -39 -1 -40 -35 -40 l-35 0 0 -75 0 -75 -35 0 c-33 0
-35 -2 -35 -35 0 -34 -1 -35 -40 -35 l-40 0 0 -75 0 -75 -35 0 c-33 0 -35 -2
-35 -35 0 -33 -2 -35 -35 -35 l-35 0 0 75 0 75 -40 0 -40 0 0 70 0 70 -35 0
-35 0 0 75 0 75 -35 0 -35 0 0 185 0 185 35 0 c33 0 35 2 35 35 0 33 2 35 35
35 34 0 35 1 35 40 l0 40 40 0 c39 0 40 1 40 35 0 33 2 35 35 35 l35 0 0 75 0
75 35 0 c33 0 35 2 35 35 0 34 1 35 40 35 39 0 40 1 40 35 0 33 2 35 35 35 34
0 35 1 35 40 0 39 1 40 35 40 33 0 35 2 35 35 l0 35 75 0 75 0 0 35 c0 33 2
35 35 35 34 0 35 1 35 40 l0 40 40 0 c39 0 40 1 40 35 0 33 2 35 35 35 33 0
35 2 35 35 l0 35 185 0 185 0 0 -35z m-1980 -295 l0 -110 35 0 35 0 0 -70 0
-70 35 0 35 0 0 -75 0 -75 40 0 40 0 0 -75 0 -75 -665 0 -665 0 0 75 0 75 40
0 40 0 0 75 0 75 35 0 35 0 0 70 0 70 35 0 35 0 0 110 0 110 445 0 445 0 0
-110z m2860 -70 l0 -40 75 0 75 0 0 -35 0 -35 70 0 70 0 0 -35 0 -35 110 0
110 0 0 -40 0 -40 75 0 75 0 0 -35 c0 -33 2 -35 35 -35 33 0 35 -2 35 -35 l0
-35 -110 0 -110 0 0 -40 0 -40 -70 0 -70 0 0 -35 0 -35 -75 0 -75 0 0 -35 0
-35 -75 0 -75 0 0 -40 0 -40 -70 0 -70 0 0 -35 0 -35 -75 0 -75 0 0 -35 c0
-33 -2 -35 -35 -35 -34 0 -35 -1 -35 -40 l0 -40 -40 0 c-39 0 -40 -1 -40 -35
l0 -35 -70 0 -70 0 0 -40 0 -40 -40 0 c-39 0 -40 -1 -40 -35 0 -33 -2 -35 -35
-35 -33 0 -35 -2 -35 -35 0 -33 -2 -35 -35 -35 l-35 0 0 -75 0 -75 -40 0 c-39
0 -40 -1 -40 -35 0 -33 -2 -35 -35 -35 -34 0 -35 -1 -35 -40 l0 -40 -40 0
c-39 0 -40 -1 -40 -35 0 -33 -2 -35 -35 -35 l-35 0 0 -75 0 -75 -35 0 -35 0 0
-70 0 -70 -40 0 -40 0 0 -75 0 -75 -35 0 -35 0 0 -75 0 -75 -35 0 -35 0 0 -70
0 -70 -40 0 -40 0 0 -110 0 -110 -35 0 c-33 0 -35 2 -35 35 0 33 -2 35 -35 35
l-35 0 0 75 0 75 -40 0 -40 0 0 110 0 110 -35 0 -35 0 0 70 0 70 -35 0 -35 0
0 185 0 185 35 0 35 0 0 75 0 75 35 0 c33 0 35 2 35 35 0 34 1 35 40 35 l40 0
0 75 0 75 35 0 c33 0 35 2 35 35 0 33 2 35 35 35 l35 0 0 75 0 75 40 0 c39 0
40 1 40 35 0 33 2 35 35 35 34 0 35 1 35 40 0 39 1 40 35 40 33 0 35 2 35 35
0 34 1 35 40 35 39 0 40 1 40 35 0 33 2 35 35 35 34 0 35 1 35 40 0 39 1 40
35 40 33 0 35 2 35 35 0 34 1 35 40 35 39 0 40 1 40 35 0 33 2 35 35 35 34 0
35 1 35 40 l0 40 75 0 75 0 0 35 c0 33 2 35 35 35 33 0 35 2 35 35 l0 35 75 0
75 0 0 40 c0 39 1 40 35 40 33 0 35 2 35 35 l0 35 75 0 75 0 0 35 0 35 75 0
75 0 0 40 c0 39 1 40 35 40 34 0 35 -1 35 -40z m-2940 -735 l0 -35 220 0 220
0 0 -75 0 -75 40 0 40 0 0 -75 0 -75 35 0 35 0 0 -110 0 -110 35 0 35 0 0 -70
0 -70 40 0 40 0 0 -40 0 -40 -110 0 -110 0 0 40 0 40 -185 0 -185 0 0 35 0 35
-515 0 -515 0 0 -35 0 -35 -185 0 -185 0 0 -40 0 -40 -110 0 -110 0 0 40 0 40
40 0 40 0 0 70 0 70 35 0 35 0 0 110 0 110 35 0 35 0 0 75 0 75 40 0 40 0 0
75 0 75 220 0 220 0 0 35 0 35 365 0 365 0 0 -35z m220 -955 l0 -40 185 0 185
0 0 -35 0 -35 110 0 110 0 0 -35 c0 -33 2 -35 35 -35 34 0 35 -1 35 -40 l0
-40 40 0 40 0 0 -110 0 -110 35 0 35 0 0 -70 0 -70 35 0 35 0 0 -75 0 -75 40
0 40 0 0 -110 0 -110 -40 0 c-39 0 -40 1 -40 35 l0 35 -70 0 -70 0 0 40 0 40
-110 0 -110 0 0 35 0 35 -75 0 -75 0 0 35 0 35 -145 0 -145 0 0 40 0 40 -665
0 -665 0 0 -40 0 -40 -145 0 -145 0 0 -35 0 -35 -75 0 -75 0 0 -35 0 -35 -110
0 -110 0 0 -40 0 -40 -70 0 -70 0 0 -35 c0 -34 -1 -35 -40 -35 l-40 0 0 110 0
110 40 0 40 0 0 75 0 75 35 0 35 0 0 70 0 70 35 0 35 0 0 110 0 110 40 0 40 0
0 40 c0 39 1 40 35 40 33 0 35 2 35 35 l0 35 110 0 110 0 0 35 0 35 185 0 185
0 0 40 0 40 585 0 585 0 0 -40z"/>
<path d="M36546 17419 c-639 -36 -1218 -204 -1736 -502 -851 -489 -1454 -1296
-1699 -2274 -144 -572 -158 -1252 -39 -1853 147 -743 501 -1399 1039 -1926
622 -608 1389 -949 2319 -1030 217 -19 667 -14 865 10 903 108 1640 457 2236
1059 302 305 569 705 753 1129 323 744 403 1674 216 2528 -120 544 -379 1085
-733 1528 -117 148 -360 394 -497 504 -745 599 -1690 886 -2724 827z m565
-889 c398 -40 763 -155 1095 -344 488 -280 810 -623 1054 -1121 192 -393 289
-788 309 -1263 26 -626 -80 -1161 -329 -1652 -290 -570 -748 -993 -1336 -1234
-453 -185 -1035 -246 -1587 -166 -882 129 -1593 646 -1987 1445 -148 300 -233
586 -286 955 -22 156 -30 636 -14 812 66 731 334 1334 799 1798 217 217 407
353 687 493 289 144 627 242 954 276 122 12 520 13 641 1z"/>
<path d="M46112 17420 c-855 -51 -1602 -326 -2217 -816 -142 -114 -408 -379
-519 -519 -417 -524 -650 -1106 -738 -1840 -17 -148 -17 -700 0 -860 45 -404
145 -789 292 -1122 83 -187 146 -301 257 -471 439 -667 1087 -1161 1854 -1412
647 -212 1415 -264 2084 -139 665 123 1274 424 1720 850 120 115 272 290 368
425 l72 102 3 -497 c5 -771 -18 -1077 -109 -1448 -257 -1054 -982 -1604 -2244
-1703 -180 -14 -633 -14 -800 0 -969 81 -1827 405 -2455 929 l-95 79 -252
-379 c-139 -208 -253 -383 -253 -388 0 -5 42 -44 93 -87 389 -327 818 -556
1402 -750 475 -157 913 -246 1460 -296 216 -20 895 -17 1115 5 842 84 1436
290 1945 671 156 117 405 365 518 517 342 459 548 1018 637 1729 45 357 43
249 47 3888 l4 3482 -486 0 -485 0 0 -716 0 -716 -81 114 c-558 779 -1401
1247 -2439 1352 -187 19 -516 27 -698 16z m853 -909 c494 -76 956 -267 1338
-554 453 -340 809 -898 941 -1477 110 -481 90 -1071 -52 -1530 -144 -463 -430
-909 -771 -1203 -434 -372 -930 -581 -1566 -659 -167 -20 -645 -17 -810 6
-549 75 -971 238 -1349 520 -407 304 -706 703 -879 1171 -218 591 -232 1346
-35 1954 80 248 162 419 303 631 401 605 1045 1003 1828 1130 207 34 290 39
607 35 251 -2 330 -7 445 -24z"/>
</g>
</svg>
